<svg width="20" height="20" viewBox="0 0 20 20" fill="none" xmlns="http://www.w3.org/2000/svg">
<path d="M7.49984 1.66669H12.4998C16.6665 1.66669 18.3332 3.33335 18.3332 7.50002V12.5C18.3332 16.6667 16.6665 18.3334 12.4998 18.3334H7.49984C3.33317 18.3334 1.6665 16.6667 1.6665 12.5V7.50002C1.6665 3.33335 3.33317 1.66669 7.49984 1.66669Z" stroke="#4B6180" stroke-width="1.5" stroke-linecap="round" stroke-linejoin="round"/>
<path opacity="0.4" d="M6.93311 12.725L12.3831 7.27502" stroke="#4B6180" stroke-width="1.5" stroke-linecap="round" stroke-linejoin="round"/>
<path opacity="0.4" d="M7.27501 8.64167C7.8411 8.64167 8.29999 8.18278 8.29999 7.61668C8.29999 7.05059 7.8411 6.59167 7.27501 6.59167C6.70892 6.59167 6.25 7.05059 6.25 7.61668C6.25 8.18278 6.70892 8.64167 7.27501 8.64167Z" stroke="#4B6180" stroke-width="1.5" stroke-linecap="round" stroke-linejoin="round"/>
<path opacity="0.4" d="M12.7252 13.4083C13.2913 13.4083 13.7502 12.9494 13.7502 12.3833C13.7502 11.8172 13.2913 11.3583 12.7252 11.3583C12.1591 11.3583 11.7002 11.8172 11.7002 12.3833C11.7002 12.9494 12.1591 13.4083 12.7252 13.4083Z" stroke="#4B6180" stroke-width="1.5" stroke-linecap="round" stroke-linejoin="round"/>
</svg>
