<svg width="20" height="20" viewBox="0 0 20 20" fill="none" xmlns="http://www.w3.org/2000/svg">
<g opacity="0.4">
<path d="M8.95835 14.05V15.7417C8.95835 17.175 7.62501 18.3333 5.98335 18.3333C4.34168 18.3333 3 17.175 3 15.7417V14.05C3 15.4833 4.33335 16.5 5.98335 16.5C7.62501 16.5 8.95835 15.475 8.95835 14.05Z" stroke="#4B6180" stroke-width="1.5" stroke-linecap="round" stroke-linejoin="round"/>
<path d="M8.95834 11.7584C8.95834 12.175 8.84167 12.5583 8.64167 12.8917C8.15001 13.7 7.14166 14.2084 5.975 14.2084C4.80833 14.2084 3.79999 13.6917 3.30832 12.8917C3.10832 12.5583 2.9917 12.175 2.9917 11.7584C2.9917 11.0417 3.32501 10.4 3.85835 9.93336C4.40001 9.45836 5.14165 9.17505 5.96665 9.17505C6.79165 9.17505 7.53335 9.46669 8.07501 9.93336C8.62501 10.3917 8.95834 11.0417 8.95834 11.7584Z" stroke="#4B6180" stroke-width="1.5" stroke-linecap="round" stroke-linejoin="round"/>
<path d="M8.95835 11.7583V14.05C8.95835 15.4833 7.62501 16.5 5.98335 16.5C4.34168 16.5 3 15.475 3 14.05V11.7583C3 10.325 4.33335 9.16669 5.98335 9.16669C6.80835 9.16669 7.55004 9.45833 8.09171 9.925C8.62504 10.3917 8.95835 11.0417 8.95835 11.7583Z" stroke="#4B6180" stroke-width="1.5" stroke-linecap="round" stroke-linejoin="round"/>
</g>
<path d="M18.3333 9.14165V10.8584C18.3333 11.3167 17.9667 11.6917 17.5 11.7083H15.8667C14.9667 11.7083 14.1417 11.05 14.0667 10.15C14.0167 9.625 14.2167 9.13333 14.5667 8.79167C14.875 8.475 15.3 8.29169 15.7667 8.29169H17.5C17.9667 8.30835 18.3333 8.68332 18.3333 9.14165Z" stroke="#4B6180" stroke-width="1.5" stroke-linecap="round" stroke-linejoin="round"/>
<path d="M1.6665 8.75002V7.08335C1.6665 4.81669 3.03317 3.23335 5.15817 2.96668C5.37484 2.93335 5.59984 2.91669 5.83317 2.91669H13.3332C13.5498 2.91669 13.7582 2.92501 13.9582 2.95834C16.1082 3.20834 17.4998 4.80002 17.4998 7.08335V8.2917H15.7665C15.2998 8.2917 14.8748 8.47501 14.5665 8.79168C14.2165 9.13334 14.0165 9.62501 14.0665 10.15C14.1415 11.05 14.9665 11.7083 15.8665 11.7083H17.4998V12.9167C17.4998 15.4167 15.8332 17.0834 13.3332 17.0834H11.2498" stroke="#4B6180" stroke-width="1.5" stroke-linecap="round" stroke-linejoin="round"/>
</svg>
