<svg width="20" height="20" viewBox="0 0 20 20" fill="none" xmlns="http://www.w3.org/2000/svg">
<path d="M18.3335 5.00002V7.01669C18.3335 8.33335 17.5002 9.16669 16.1835 9.16669H13.3335V3.34169C13.3335 2.41669 14.0918 1.66669 15.0168 1.66669C15.9252 1.67502 16.7585 2.04169 17.3585 2.64169C17.9585 3.25002 18.3335 4.08335 18.3335 5.00002Z" stroke="#4B6180" stroke-width="1.5" stroke-miterlimit="10" stroke-linecap="round" stroke-linejoin="round"/>
<path d="M1.6665 5.83335V17.5C1.6665 18.1917 2.44984 18.5834 2.99984 18.1667L4.42484 17.1C4.75817 16.85 5.22484 16.8834 5.52484 17.1834L6.90817 18.575C7.23317 18.9 7.7665 18.9 8.0915 18.575L9.4915 17.175C9.78317 16.8834 10.2498 16.85 10.5748 17.1L11.9998 18.1667C12.5498 18.575 13.3332 18.1834 13.3332 17.5V3.33335C13.3332 2.41669 14.0832 1.66669 14.9998 1.66669H5.83317H4.99984C2.49984 1.66669 1.6665 3.15835 1.6665 5.00002V5.83335Z" stroke="#4B6180" stroke-width="1.5" stroke-miterlimit="10" stroke-linecap="round" stroke-linejoin="round"/>
<path opacity="0.4" d="M7.5 10.8417H10" stroke="#4B6180" stroke-width="1.5" stroke-linecap="round" stroke-linejoin="round"/>
<path opacity="0.4" d="M7.5 7.50836H10" stroke="#4B6180" stroke-width="1.5" stroke-linecap="round" stroke-linejoin="round"/>
<path opacity="0.4" d="M4.99609 10.8333H5.00358" stroke="#4B6180" stroke-width="2" stroke-linecap="round" stroke-linejoin="round"/>
<path opacity="0.4" d="M4.99607 7.49998H5.00356" stroke="#4B6180" stroke-width="2" stroke-linecap="round" stroke-linejoin="round"/>
</svg>
