<svg width="44" height="44" viewBox="0 0 44 44" fill="none" xmlns="http://www.w3.org/2000/svg">
<rect width="44" height="44" rx="8" fill="#14171F"/>
<path d="M27 28.43H23L18.55 31.39C17.89 31.83 17 31.36 17 30.56V28.43C14 28.43 12 26.43 12 23.43V17.4299C12 14.4299 14 12.4299 17 12.4299H27C30 12.4299 32 14.4299 32 17.4299V23.43C32 26.43 30 28.43 27 28.43Z" stroke="#CBD5E1" stroke-width="1.5" stroke-miterlimit="10" stroke-linecap="round" stroke-linejoin="round"/>
<path d="M21.9998 21.3599V21.1499C21.9998 20.4699 22.4198 20.1099 22.8398 19.8199C23.2498 19.5399 23.6598 19.1799 23.6598 18.5199C23.6598 17.5999 22.9198 16.8599 21.9998 16.8599C21.0798 16.8599 20.3398 17.5999 20.3398 18.5199" stroke="#CBD5E1" stroke-width="1.5" stroke-linecap="round" stroke-linejoin="round"/>
<path d="M21.9955 23.75H22.0045" stroke="#CBD5E1" stroke-width="1.5" stroke-linecap="round" stroke-linejoin="round"/>
</svg>
